<svg id="Слой_1" data-name="Слой 1" xmlns="http://www.w3.org/2000/svg" xmlns:xlink="http://www.w3.org/1999/xlink" viewBox="0 0 5135.04 1090.14"><defs><style>.cls-1,.cls-8{fill:url(#Безымянный_градиент_9);}.cls-1{clip-rule:evenodd;}.cls-2{fill:url(#Безымянный_градиент_9-2);}.cls-3{fill:url(#Безымянный_градиент_9-3);}.cls-4{fill:url(#Безымянный_градиент_9-4);}.cls-5{fill:url(#Безымянный_градиент_9-5);}.cls-6{fill:url(#Безымянный_градиент_9-6);}.cls-7{fill:url(#Безымянный_градиент_9-7);}.cls-11,.cls-8{fill-rule:evenodd;}.cls-9{clip-path:url(#clip-path);}.cls-10{fill:url(#Безымянный_градиент_9-9);}.cls-11{fill:#f9bd00;}.cls-12{clip-path:url(#clip-path-2);}.cls-13{fill:url(#Безымянный_градиент_9-11);}.cls-14{clip-path:url(#clip-path-3);}.cls-15{fill:url(#Безымянный_градиент_9-13);}.cls-16{clip-path:url(#clip-path-4);}.cls-17{fill:url(#Безымянный_градиент_9-15);}.cls-18{clip-path:url(#clip-path-5);}.cls-19{fill:url(#Безымянный_градиент_9-17);}.cls-20{clip-path:url(#clip-path-6);}.cls-21{fill:url(#Безымянный_градиент_9-19);}.cls-22{clip-path:url(#clip-path-7);}.cls-23{fill:url(#Безымянный_градиент_9-21);}</style><linearGradient id="Безымянный_градиент_9" x1="512.9" y1="662.9" x2="957.66" y2="662.9" gradientUnits="userSpaceOnUse"><stop offset="0" stop-color="#0095c7"/><stop offset="0.33" stop-color="#007fc4"/><stop offset="1" stop-color="#0046bd"/></linearGradient><linearGradient id="Безымянный_градиент_9-2" x1="4398.65" y1="662.51" x2="5135.04" y2="662.51" xlink:href="#Безымянный_градиент_9"/><linearGradient id="Безымянный_градиент_9-3" x1="1139.43" y1="545.07" x2="1362.33" y2="545.07" xlink:href="#Безымянный_градиент_9"/><linearGradient id="Безымянный_градиент_9-4" x1="1398.65" y1="662.51" x2="1895.62" y2="662.51" xlink:href="#Безымянный_градиент_9"/><linearGradient id="Безымянный_градиент_9-5" x1="1996.34" y1="662.51" x2="2732.72" y2="662.51" xlink:href="#Безымянный_градиент_9"/><linearGradient id="Безымянный_градиент_9-6" x1="2879.66" y1="661.68" x2="3530.19" y2="661.68" xlink:href="#Безымянный_градиент_9"/><linearGradient id="Безымянный_градиент_9-7" x1="3630.91" y1="661.68" x2="4281.43" y2="661.68" xlink:href="#Безымянный_градиент_9"/><clipPath id="clip-path"><path class="cls-1" d="M849.62,1090.14h0c59.41,0,108-48.59,108-108V343.71a107.72,107.72,0,0,0-31.53-76.53c-42-42-110.78-42-152.8,0L544.42,496.1c-42,42-42,110.77,0,152.79s110.79,42,152.81,0l44.34-44.34V982.14c0,59.41,48.62,108,108,108"/></clipPath><linearGradient id="Безымянный_градиент_9-9" x1="545.84" y1="437.44" x2="923.63" y2="889.08" xlink:href="#Безымянный_градиент_9"/><clipPath id="clip-path-2"><path class="cls-2" d="M4740.43,926.68c-72.64,0-117.23-34.67-117.23-89.16S4662.83,755,4737.13,755h175v9.91c0,92.46-74.3,161.8-171.71,161.8m41.28-691.8c-118.88,0-226.2,36.32-295.55,100.72-29.72,28.07-46.23,57.79-46.23,89.16,0,49.53,41.28,90.81,95.77,90.81,21.46,0,39.62-6.61,66-26.43,47.88-41.27,99.06-61.08,156.85-61.08,99.07,0,153.55,52.83,153.55,143.64V608H4707.4c-191.51,0-308.75,90.81-308.75,237.76,0,145.3,113.93,244.36,282.34,244.36,97.41,0,180-31.37,239.41-87.51,9.9,49.54,52.83,85.86,107.32,85.86,61.09,0,107.32-46.23,107.32-110.63v-393C5135,362,5006.25,234.88,4781.71,234.88Z"/></clipPath><linearGradient id="Безымянный_градиент_9-11" x1="4454.25" y1="436.42" x2="5079.4" y2="888.57" xlink:href="#Безымянный_градиент_9"/><clipPath id="clip-path-3"><path class="cls-3" d="M1251.7,0c-64.39,0-112.27,49.54-112.27,113.92v862.3c0,64.38,47.88,113.92,112.27,113.92,62.75,0,110.63-47.88,110.63-113.92V113.92c0-66-46.24-113.92-110.63-113.92"/></clipPath><linearGradient id="Безымянный_градиент_9-13" x1="1156.27" y1="256.97" x2="1345.54" y2="833.3" xlink:href="#Безымянный_градиент_9"/><clipPath id="clip-path-4"><path class="cls-4" d="M1869.21,918.43,1634.75,624.54l208-211.34c24.76-24.77,36.32-51.19,36.32-79.25,0-56.14-44.58-99.07-102.37-99.07-28.06,0-56.13,11.56-77.59,34.68L1438.28,542c-28.07,31.37-39.63,54.49-39.63,82.56,0,24.77,9.91,47.88,34.67,80.9l279,343.43c21.47,28.06,47.89,41.27,82.56,41.27,56.14,0,100.71-44.58,100.71-102.37,0-24.76-8.25-46.23-26.41-69.34"/></clipPath><linearGradient id="Безымянный_градиент_9-15" x1="1436.2" y1="436.43" x2="1858.06" y2="888.58" xlink:href="#Безымянный_градиент_9"/><clipPath id="clip-path-5"><path class="cls-5" d="M2338.11,926.68c-72.64,0-117.22-34.67-117.22-89.16S2260.52,755,2334.81,755h175v9.91c0,92.46-74.29,161.8-171.71,161.8m41.28-691.8c-118.87,0-226.2,36.32-295.54,100.72-29.72,28.07-46.23,57.79-46.23,89.16,0,49.53,41.28,90.81,95.76,90.81,21.46,0,39.63-6.61,66-26.43,47.88-41.27,99.06-61.08,156.85-61.08,99.06,0,153.54,52.83,153.54,143.64V608H2305.09c-191.52,0-308.75,90.81-308.75,237.76,0,145.3,113.92,244.36,282.34,244.36,97.4,0,180-31.37,239.4-87.51,9.91,49.54,52.83,85.86,107.32,85.86,61.09,0,107.32-46.23,107.32-110.63v-393C2732.72,362,2603.93,234.88,2379.39,234.88Z"/></clipPath><linearGradient id="Безымянный_градиент_9-17" x1="2052.03" y1="436.49" x2="2677.17" y2="888.63" xlink:href="#Безымянный_градиент_9"/><clipPath id="clip-path-6"><path class="cls-6" d="M3211.53,1090.14c178.31,0,318.66-92.46,318.66-260.87,0-127.13-82.56-189.87-229.5-249.31l-79.25-33c-59.45-23.11-85.86-39.62-85.86-72.64,0-39.63,34.67-57.79,87.51-57.79,54.48,0,105.66,19.82,148.59,49.53,19.82,13.21,39.63,23.11,59.45,23.11,49.52,0,90.81-41.27,90.81-92.45,0-29.72-13.22-56.14-39.63-75.95-66-56.14-160.16-87.51-257.57-87.51-173.36,0-300.49,89.16-300.49,246,0,128.78,84.2,193.18,222.89,249.31l87.5,36.33c49.54,21.46,84.21,36.32,84.21,74.3,0,46.23-47.89,67.69-104,67.69-71,0-130.43-31.37-178.31-72.65-23.12-18.16-42.93-24.76-64.4-24.76-51.18,0-92.46,42.93-92.46,94.11,0,26.42,9.91,51.18,31.37,69.35,72.65,71,178.32,117.22,300.5,117.22"/></clipPath><linearGradient id="Безымянный_градиент_9-19" x1="2928.78" y1="435.23" x2="3481.07" y2="888.13" xlink:href="#Безымянный_градиент_9"/><clipPath id="clip-path-7"><path class="cls-7" d="M3962.77,1090.14c178.31,0,318.66-92.46,318.66-260.87,0-127.13-82.56-189.87-229.5-249.31l-79.25-33c-59.45-23.11-85.86-39.62-85.86-72.64,0-39.63,34.68-57.79,87.51-57.79,54.48,0,105.67,19.82,148.59,49.53,19.82,13.21,39.63,23.11,59.45,23.11,49.52,0,90.81-41.27,90.81-92.45,0-29.72-13.22-56.14-39.63-75.95-66-56.14-160.15-87.51-257.57-87.51-173.36,0-300.49,89.16-300.49,246,0,128.78,84.2,193.18,222.89,249.31l87.51,36.33c49.53,21.46,84.2,36.32,84.2,74.3,0,46.23-47.89,67.69-104,67.69-71,0-130.43-31.37-178.31-72.65-23.12-18.16-42.93-24.76-64.4-24.76-51.18,0-92.45,42.93-92.45,94.11,0,26.42,9.9,51.18,31.36,69.35,72.65,71,178.32,117.22,300.5,117.22"/></clipPath><linearGradient id="Безымянный_градиент_9-21" x1="3680.07" y1="435.27" x2="4232.36" y2="888.17" xlink:href="#Безымянный_градиент_9"/></defs><path class="cls-8" d="M849.62,1090.14h0c59.41,0,108-48.59,108-108V343.71a107.72,107.72,0,0,0-31.53-76.53c-42-42-110.78-42-152.8,0L544.42,496.1c-42,42-42,110.77,0,152.79s110.79,42,152.81,0l44.34-44.34V982.14c0,59.41,48.62,108,108,108"/><g class="cls-9"><rect class="cls-10" x="502.39" y="225.15" width="455.29" height="864.99"/></g><path class="cls-11" d="M0,343.49A107.75,107.75,0,0,1,31.52,267c42-42,110.79-42,152.81,0L413.24,495.88c42,42,42,110.77,0,152.79h0c-42,42-110.79,42-152.8,0l-44.35-44.34V981.91c0,59.42-48.63,108-108,108h0c-59.41,0-108-48.59-108-108Z"/><path class="cls-2" d="M4740.43,926.68c-72.64,0-117.23-34.67-117.23-89.16S4662.83,755,4737.13,755h175v9.91c0,92.46-74.3,161.8-171.71,161.8m41.28-691.8c-118.88,0-226.2,36.32-295.55,100.72-29.72,28.07-46.23,57.79-46.23,89.16,0,49.53,41.28,90.81,95.77,90.81,21.46,0,39.62-6.61,66-26.43,47.88-41.27,99.06-61.08,156.85-61.08,99.07,0,153.55,52.83,153.55,143.64V608H4707.4c-191.51,0-308.75,90.81-308.75,237.76,0,145.3,113.93,244.36,282.34,244.36,97.41,0,180-31.37,239.41-87.51,9.9,49.54,52.83,85.86,107.32,85.86,61.09,0,107.32-46.23,107.32-110.63v-393C5135,362,5006.25,234.88,4781.71,234.88Z"/><g class="cls-12"><rect class="cls-13" x="4398.65" y="234.88" width="736.38" height="855.26"/></g><path class="cls-3" d="M1251.7,0c-64.39,0-112.27,49.54-112.27,113.92v862.3c0,64.38,47.88,113.92,112.27,113.92,62.75,0,110.63-47.88,110.63-113.92V113.92c0-66-46.24-113.92-110.63-113.92"/><g class="cls-14"><rect class="cls-15" x="1139.43" width="222.9" height="1090.14"/></g><path class="cls-4" d="M1869.21,918.43,1634.75,624.54l208-211.34c24.76-24.77,36.32-51.19,36.32-79.25,0-56.14-44.58-99.07-102.37-99.07-28.06,0-56.13,11.56-77.59,34.68L1438.28,542c-28.07,31.37-39.63,54.49-39.63,82.56,0,24.77,9.91,47.88,34.67,80.9l279,343.43c21.47,28.06,47.89,41.27,82.56,41.27,56.14,0,100.71-44.58,100.71-102.37,0-24.76-8.25-46.23-26.41-69.34"/><g class="cls-16"><rect class="cls-17" x="1398.65" y="234.88" width="496.97" height="855.26"/></g><path class="cls-5" d="M2338.11,926.68c-72.64,0-117.22-34.67-117.22-89.16S2260.52,755,2334.81,755h175v9.91c0,92.46-74.29,161.8-171.71,161.8m41.28-691.8c-118.87,0-226.2,36.32-295.54,100.72-29.72,28.07-46.23,57.79-46.23,89.16,0,49.53,41.28,90.81,95.76,90.81,21.46,0,39.63-6.61,66-26.43,47.88-41.27,99.06-61.08,156.85-61.08,99.06,0,153.54,52.83,153.54,143.64V608H2305.09c-191.52,0-308.75,90.81-308.75,237.76,0,145.3,113.92,244.36,282.34,244.36,97.4,0,180-31.37,239.4-87.51,9.91,49.54,52.83,85.86,107.32,85.86,61.09,0,107.32-46.23,107.32-110.63v-393C2732.72,362,2603.93,234.88,2379.39,234.88Z"/><g class="cls-18"><rect class="cls-19" x="1996.34" y="234.88" width="736.38" height="855.26"/></g><path class="cls-6" d="M3211.53,1090.14c178.31,0,318.66-92.46,318.66-260.87,0-127.13-82.56-189.87-229.5-249.31l-79.25-33c-59.45-23.11-85.86-39.62-85.86-72.64,0-39.63,34.67-57.79,87.51-57.79,54.48,0,105.66,19.82,148.59,49.53,19.82,13.21,39.63,23.11,59.45,23.11,49.52,0,90.81-41.27,90.81-92.45,0-29.72-13.22-56.14-39.63-75.95-66-56.14-160.16-87.51-257.57-87.51-173.36,0-300.49,89.16-300.49,246,0,128.78,84.2,193.18,222.89,249.31l87.5,36.33c49.54,21.46,84.21,36.32,84.21,74.3,0,46.23-47.89,67.69-104,67.69-71,0-130.43-31.37-178.31-72.65-23.12-18.16-42.93-24.76-64.4-24.76-51.18,0-92.46,42.93-92.46,94.11,0,26.42,9.91,51.18,31.37,69.35,72.65,71,178.32,117.22,300.5,117.22"/><g class="cls-20"><rect class="cls-21" x="2879.66" y="233.23" width="650.52" height="856.91"/></g><path class="cls-7" d="M3962.77,1090.14c178.31,0,318.66-92.46,318.66-260.87,0-127.13-82.56-189.87-229.5-249.31l-79.25-33c-59.45-23.11-85.86-39.62-85.86-72.64,0-39.63,34.68-57.79,87.51-57.79,54.48,0,105.67,19.82,148.59,49.53,19.82,13.21,39.63,23.11,59.45,23.11,49.52,0,90.81-41.27,90.81-92.45,0-29.72-13.22-56.14-39.63-75.95-66-56.14-160.15-87.51-257.57-87.51-173.36,0-300.49,89.16-300.49,246,0,128.78,84.2,193.18,222.89,249.31l87.51,36.33c49.53,21.46,84.2,36.32,84.2,74.3,0,46.23-47.89,67.69-104,67.69-71,0-130.43-31.37-178.31-72.65-23.12-18.16-42.93-24.76-64.4-24.76-51.18,0-92.45,42.93-92.45,94.11,0,26.42,9.9,51.18,31.36,69.35,72.65,71,178.32,117.22,300.5,117.22"/><g class="cls-22"><rect class="cls-23" x="3630.91" y="233.23" width="650.52" height="856.91"/></g></svg>